<svg xmlns="http://www.w3.org/2000/svg" xmlns:xlink="http://www.w3.org/1999/xlink" fill="none" version="1.1" width="24" height="24" viewBox="0 0 24 24"><defs><clipPath id="master_svg0_1_7030"><rect x="0" y="0" width="24" height="24" rx="0"/></clipPath></defs><g clip-path="url(#master_svg0_1_7030)"><g><path d="M12.0389896484375,23.50054305419922C18.3906896484375,23.478743054199217,23.5206896484375,18.31204305419922,23.4996896484375,11.95954305419922C23.4771896484375,5.608503054199219,18.3104896484375,0.47925285419921876,11.9594896484375,0.4995031356992187C5.6099496484375,0.5212531541992187,0.4784534484375,5.687253054199219,0.4994533062375,12.037543054199219C0.5219532484375,18.39074305419922,5.6886996484375,23.52074305419922,12.0381896484375,23.50054305419922L12.0389896484375,23.50054305419922ZM10.5179896484375,6.501753054199218C10.5164896484375,6.051003054199219,10.8846896484375,5.682003054199218,11.3339896484375,5.680503054199219L12.6231896484375,5.676753054199219C13.0716896484375,5.674503054199219,13.4414896484375,6.040503054199219,13.4429896484375,6.491253054199219L13.4616896484375,12.168043054199218C13.4631896484375,12.61654305419922,13.0971896484375,12.98774305419922,12.6464896484375,12.99004305419922L11.3586896484375,12.99374305419922C10.9094896484375,12.99604305419922,10.5389896484375,12.629243054199218,10.5374896484375,12.179243054199219L10.5179896484375,6.501753054199218ZM10.5509896484375,16.22024305419922C10.5486896484375,15.771743054199218,10.9176896484375,15.399043054199218,11.3661896484375,15.397543054199218L12.6554896484375,15.394543054199218C13.1061896484375,15.393043054199218,13.4766896484375,15.75904305419922,13.4781896484375,16.20974305419922L13.4834896484375,17.496743054199218C13.4856896484375,17.94604305419922,13.1181896484375,18.31654305419922,12.6681896484375,18.31954305419922L11.3789896484375,18.324743054199217C10.9296896484375,18.32704305419922,10.5591896484375,17.95954305419922,10.5576896484375,17.50954305419922L10.5509896484375,16.22174305419922L10.5509896484375,16.22024305419922Z" fill="#61666D" fill-opacity="1"/></g></g></svg>