<svg xmlns="http://www.w3.org/2000/svg" xmlns:xlink="http://www.w3.org/1999/xlink" fill="none" version="1.1" width="24" height="24.000001907348633" viewBox="0 0 24 24.000001907348633"><defs><clipPath id="master_svg0_1_7023"><rect x="0" y="0" width="24" height="24.000001907348633" rx="0"/></clipPath></defs><g clip-path="url(#master_svg0_1_7023)"><g><path d="M23.1429,2L13.7143,2L13.0286,2.171428L12,3.37143L10.9714,2.171428L10.2857,2L0.857143,2L0,2.8571429999999998L0,20L0.857143,20.8571L9.94286,20.8571L11.4857,22.4L12.6857,22.4L14.0571,20.8571L23.1429,20.8571L24,20L24,2.8571429999999998L23.1429,2ZM10.8,19.3143L10.2857,19.1429L1.71429,19.1429L1.71429,3.71429L9.94286,3.71429L11.1429,4.91428L11.1429,19.6571L10.8,19.3143ZM22.2857,19.1429L13.7143,19.1429L13.0286,19.3143L12.8571,19.4857L12.8571,4.91428L14.0571,3.71429L22.2857,3.71429L22.2857,19.1429ZM8.57143,7.14286L3.42857,7.14286L3.42857,8.857140000000001L8.57143,8.857140000000001L8.57143,7.14286ZM8.57143,10.57143L3.42857,10.57143L3.42857,12.2857L8.57143,12.2857L8.57143,10.57143ZM3.42857,14L8.57143,14L8.57143,15.7143L3.42857,15.7143L3.42857,14ZM20.5714,7.14286L15.4286,7.14286L15.4286,8.857140000000001L20.5714,8.857140000000001L20.5714,7.14286ZM15.4286,10.57143L20.5714,10.57143L20.5714,12.2857L15.4286,12.2857L15.4286,10.57143ZM15.4286,14L20.5714,14L20.5714,15.7143L15.4286,15.7143L15.4286,14Z" fill="#61666D" fill-opacity="1"/></g></g></svg>