<svg xmlns="http://www.w3.org/2000/svg" xmlns:xlink="http://www.w3.org/1999/xlink" fill="none" version="1.1" width="24" height="24" viewBox="0 0 24 24"><defs><clipPath id="master_svg0_41_142"><rect x="0" y="0" width="24" height="24" rx="0"/></clipPath></defs><g clip-path="url(#master_svg0_41_142)"><g><path d="M18.2648875,5.34843625L15.6163875,5.34843625L15.6163875,4.5187462499999995C15.6163875,3.70078125,14.9507875,3.03515625,14.1328075,3.03515625L9.9609375,3.03515625C9.142967500000001,3.03515625,8.4773475,3.70078125,8.4773475,4.5187462499999995L8.4773475,5.34843625L5.8289075,5.34843625C5.0578125,5.34843625,4.4296875,5.976566249999999,4.4296875,6.74765625L4.4296875,7.64999625C4.4296875,8.42109625,5.0578125,9.04921625,5.8289075,9.04921625L5.8710975,9.04921625L5.8710975,18.72425625C5.8710975,19.99215625,6.902347499999999,21.02345625,8.1703075,21.02345625L15.9257875,21.02345625C17.1937875,21.02345625,18.224987499999997,19.99215625,18.224987499999997,18.72425625L18.224987499999997,9.04921625L18.2671875,9.04921625C19.0382875,9.04921625,19.6663875,8.42109625,19.6663875,7.64999625L19.6663875,6.74765625C19.6640875,5.976566249999999,19.0382875,5.34843625,18.2648875,5.34843625ZM9.4781275,4.5187462499999995C9.4781275,4.25156625,9.6937475,4.03593625,9.9609375,4.03593625L14.1328075,4.03593625C14.3999975,4.03593625,14.6155875,4.25156625,14.6155875,4.5187462499999995L14.6155875,5.34843625L9.4781275,5.34843625L9.4781275,4.5187462499999995ZM17.2218875,18.721856250000002C17.2218875,19.43675625,16.640587500000002,20.02035625,15.9233875,20.02035625L8.1679675,20.02035625C7.4531275,20.02035625,6.8695275,19.43905625,6.8695275,18.721856250000002L6.8695275,9.04921625L17.2218875,9.04921625L17.2218875,18.721856250000002ZM18.6632875,7.64999625C18.6632875,7.87031625,18.485187500000002,8.04843625,18.2648875,8.04843625L5.8289075,8.04843625C5.6085975,8.04843625,5.4304675,7.87031625,5.4304675,7.64999625L5.4304675,6.74765625C5.4304675,6.52734625,5.6085975,6.34921625,5.8289075,6.34921625L18.2671875,6.34921625C18.4874875,6.34921625,18.6655875,6.52734625,18.6655875,6.74765625L18.6655875,7.64999625L18.6632875,7.64999625ZM8.857027500000001,10.83515625L9.8578075,10.83515625L9.8578075,18.27655625L8.857027500000001,18.27655625L8.857027500000001,10.83515625ZM11.5453075,10.83515625L12.5460975,10.83515625L12.5460975,18.27655625L11.5453075,18.27655625L11.5453075,10.83515625ZM14.2359375,10.83515625L15.2366875,10.83515625L15.2366875,18.27655625L14.2359375,18.27655625L14.2359375,10.83515625Z" fill="#3D3D3D" fill-opacity="1"/></g></g></svg>