<svg xmlns="http://www.w3.org/2000/svg" xmlns:xlink="http://www.w3.org/1999/xlink" fill="none" version="1.1" width="24" height="24" viewBox="0 0 24 24"><defs><clipPath id="master_svg0_36_184"><rect x="0" y="0" width="24" height="24" rx="0"/></clipPath></defs><g clip-path="url(#master_svg0_36_184)"><g><path d="M12,1.5C6.21074,1.5,1.5,6.21001,1.5,12C1.5,17.79,6.21001,22.5,12,22.5C17.7893,22.5,22.5,17.79,22.5,12C22.5,6.21001,17.79,1.5,12,1.5ZM16.2833,15.234C16.5758,15.528,16.575,16.002000000000002,16.2818,16.2945C16.1355,16.439999999999998,15.9443,16.5135,15.7523,16.5135C15.5595,16.5135,15.3675,16.439999999999998,15.2213,16.293L11.9963,13.0582L8.760760000000001,16.2593C8.61453,16.4033,8.42399,16.476,8.23349,16.476C8.040009999999999,16.476,7.84725,16.401699999999998,7.70025,16.2533C7.40925,15.9585,7.4115,15.4845,7.70626,15.1928L10.93801,11.9963L7.71824,8.766C7.42574,8.47273,7.4265,7.998,7.71973,7.7055C8.013,7.41223,8.48696,7.41376,8.78023,7.70699L12.0045,10.94099L15.24,7.74001C15.534,7.44827,16.0095,7.45126,16.3005,7.74602C16.5922,8.04077,16.589199999999998,8.515509999999999,16.2945,8.806519999999999L13.0628,12.003L16.2833,15.234Z" fill="#575B66" fill-opacity="1"/></g></g></svg>