<svg xmlns="http://www.w3.org/2000/svg" xmlns:xlink="http://www.w3.org/1999/xlink" fill="none" version="1.1" width="36" height="36" viewBox="0 0 36 36"><defs><clipPath id="master_svg0_26_171"><rect x="0" y="0" width="36" height="36" rx="0"/></clipPath></defs><g clip-path="url(#master_svg0_26_171)"><g><path d="M33.75,18C33.75,9.3375,26.6625,2.25,18,2.25C15.1875,2.25,12.4875,3.0375,10.2375,4.275C8.55,5.175,7.2,6.4125,6.3,7.5375C3.6930300000000003,10.39824,2.24864213,14.1296,2.250000536442,18C2.250000536442,26.6625,9.3375,33.75,18,33.75C18.675,33.75,19.35,33.6375,20.025,33.6375L20.25,33.6375C22.6125,33.525,24.4125,32.625,25.875,31.6125C30.6,28.9125,33.75,23.85,33.75,18ZM31.5,18C31.5,21.2625,30.375,24.3,28.35,26.6625C27.3375,26.1,24.3,24.75,23.7375,24.4125C23.175,24.1875,22.275,24.3,21.2625,24.8625C21.15,24.75,21.15,24.6375,21.0375,24.525L17.325,20.925C17.325,20.5875,17.325,20.1375,17.55,20.025C17.8875,20.025,18.7875,20.7,19.35,21.4875C19.575,21.825,20.025,21.9375,20.3625,21.825C20.8125,21.7125,21.0375,21.4875,21.2625,21.15C21.375,20.925,22.1625,18.45,20.925,17.1L20.8125,16.9875C20.925,16.425,22.95,15.3,23.9625,14.7375C25.875,13.6125,27.45,12.7125,27.675,11.3625C27.7875,10.8,27.9,10.0125,23.9625,7.2C23.5125,6.8625,22.8375,6.975,22.5,7.3125L19.9125,10.125L18.225,9L20.475,7.7625C20.925,7.5375,21.15,7.0875,21.0375,6.6375C20.925,6.1875,20.5875,5.85,20.1375,5.7375L15.975,4.8375C16.5375,4.6125,17.325,4.5,18,4.5C25.425,4.5,31.5,10.575,31.5,18ZM22.05,30.825C22.3875,29.3625,22.275,27.9,22.05,27C22.3875,26.775,22.8375,26.55,23.0625,26.55C23.625,26.775,25.2,27.5625,26.4375,28.125C25.9875,28.6875,25.3125,29.25,24.4125,29.8125C23.625,30.2625,22.8375,30.6,22.05,30.825ZM15.1875,21.4875C14.9625,21.15,14.85,20.925,14.625,20.5875C13.05,18.1125,11.925,16.5375,10.6875,16.3125L10.35,16.3125C10.0125,16.3125,9.7875,16.425,9.45,16.5375C8.775,15.8625,7.7625,13.1625,7.0875,10.2375C7.3125,9.9,7.7625,9.225,8.325,8.55L8.4375,8.4375C8.4375,8.325,8.55,8.325,8.6625,8.2125C9.3375,7.65,10.125,6.975,11.025,6.4125C11.5875,6.075,12.2625,5.85,12.9375,5.625L14.85,6.75C14.9625,6.75,15.075,6.8625,15.1875,6.8625L16.7625,7.2L15.525,7.875C15.1875,8.1,14.9625,8.4375,14.9625,8.775C14.9625,9.1125,15.1875,9.5625,15.4125,9.7875L19.4625,12.375C19.9125,12.7125,20.475,12.6,20.925,12.15L23.5125,9.45C24.3,10.0125,24.975,10.6875,25.3125,11.025C24.8625,11.475,23.625,12.15,22.8375,12.6C20.8125,13.725,18.9,14.85,18.675,16.5375C18.5625,16.9875,18.675,17.55,19.0125,18.1125C18.225,17.6625,17.325,17.4375,16.5375,18C15.1875,18.9,15.075,20.475,15.1875,21.4875ZM4.5,18C4.5,16.2,4.8375,14.5125,5.5125,13.05C6.1875,15.4125,7.3125,18.1125,8.775,18.675C9.3375,18.9,9.9,18.7875,10.35,18.5625C10.9125,19.0125,12.15,20.8125,12.7125,21.825C14.0625,23.85,14.7375,25.0875,15.8625,25.0875C16.3125,25.2,18.225,25.7625,19.8,26.325L19.8,26.8875Q20.475,29.5875,19.575,31.3875C19.0125,31.5,18.5625,31.5,18,31.5C10.575,31.5,4.5,25.425,4.5,18Z" fill="#9499A0" fill-opacity="1"/></g></g></svg>