<svg xmlns="http://www.w3.org/2000/svg" xmlns:xlink="http://www.w3.org/1999/xlink" fill="none" version="1.1" width="24" height="23.999998092651367" viewBox="0 0 24 23.999998092651367"><defs><clipPath id="master_svg0_1_19"><rect x="0" y="0" width="24" height="23.999998092651367" rx="0"/></clipPath></defs><g clip-path="url(#master_svg0_1_19)"><g><path d="M12.0001,0.28125C5.37347,0.28125,0,5.65378,0,12.28135C0,17.58325,3.43837,22.08145,8.2064,23.66825C8.80612,23.77935,9.02634,23.40785,9.02634,23.09095C9.02634,22.80475,9.01509,21.85945,9.01003,20.85685Q5.67159,21.58265,4.96716,19.44095Q4.42125,18.05395,3.63469,17.68495Q2.54597,16.94025,3.71681,16.95565Q4.92178,17.04015,5.55628,18.19215C6.62662,20.02665,8.36362,19.49635,9.04837,19.18965C9.15609,18.41415,9.46706,17.88465,9.81028,17.58505C7.14487,17.28165,4.34297,16.25265,4.34297,11.65465C4.34297,10.34445,4.81172,9.27393,5.57934,8.43356C5.45475,8.13131,5.04403,6.91087,5.69559,5.25787Q6.70331,4.93537,8.99653,6.48797C9.95372,6.22209,10.9803,6.08878,12.0001,6.08419C13.0199,6.08878,14.0473,6.222,15.0063,6.48797Q17.2967,4.93547,18.303,5.25797C18.9562,6.91078,18.5452,8.1314,18.4207,8.43356C19.1901,9.27393,19.6556,10.34445,19.6556,11.65465C19.6556,16.26365,16.8484,17.27845,14.1762,17.57555C14.6066,17.94795,14.9902,18.67825,14.9902,19.79785C14.9902,21.40345,14.9763,22.69565,14.9763,23.09095C14.9763,23.41035,15.1923,23.78445,15.8005,23.66655C20.5659,22.07815,24,17.58155,24,12.28145C24,5.65378,18.6273,0.28125,12.0001,0.28125ZM4.49447,17.37565C4.46803,17.43525,4.37419,17.45315,4.28878,17.41215C4.20169,17.37305,4.15284,17.29185,4.18097,17.23195C4.20684,17.17055,4.30087,17.15345,4.38769,17.19455C4.47487,17.23375,4.52456,17.31585,4.49447,17.37565ZM5.08472,17.90235C5.02753,17.95535,4.91559,17.93075,4.83965,17.84695C4.76119,17.76325,4.74647,17.65135,4.8045,17.59755C4.86356,17.54445,4.97203,17.56935,5.05069,17.65295C5.12925,17.73755,5.14444,17.84865,5.08472,17.90235ZM5.48972,18.57615C5.41612,18.62725,5.29594,18.57935,5.22159,18.47265C5.14809,18.36595,5.14809,18.23805,5.22319,18.18675C5.29772,18.13545,5.41612,18.18155,5.4914,18.28755C5.56472,18.39595,5.56472,18.52395,5.48972,18.57615ZM6.17447,19.35665C6.10875,19.42925,5.96859,19.40975,5.86603,19.31075C5.76112,19.21395,5.73197,19.07675,5.79797,19.00415C5.86453,18.93145,6.00544,18.95185,6.10875,19.05005C6.21281,19.14665,6.24469,19.28495,6.17447,19.35665ZM7.05966,19.62005C7.03059,19.71415,6.89559,19.75685,6.75975,19.71695C6.624,19.67575,6.53522,19.56575,6.56259,19.47075C6.59081,19.37605,6.72637,19.33165,6.86325,19.37435C6.99881,19.41525,7.08787,19.52455,7.05966,19.62005ZM8.0669,19.73195C8.07028,19.83085,7.95506,19.91285,7.81237,19.91475C7.66894,19.91795,7.55278,19.83785,7.55119,19.74035C7.55119,19.64055,7.66387,19.55925,7.8074,19.55685C7.95009,19.55395,8.0669,19.63345,8.0669,19.73195ZM9.05644,19.69395C9.0735,19.79055,8.9744,19.88975,8.83265,19.91615C8.69344,19.94155,8.56444,19.88195,8.54672,19.78625C8.52947,19.68725,8.63043,19.58805,8.76947,19.56245C8.91141,19.53775,9.03834,19.59585,9.05644,19.69395Z" fill="#FFFFFF" fill-opacity="1"/></g></g></svg>