<svg xmlns="http://www.w3.org/2000/svg" xmlns:xlink="http://www.w3.org/1999/xlink" fill="none" version="1.1" width="24" height="24" viewBox="0 0 24 24"><defs><clipPath id="master_svg0_1_7965"><rect x="0" y="0" width="24" height="24" rx="0"/></clipPath></defs><g clip-path="url(#master_svg0_1_7965)"><g><path d="M23.562,21.43950439453125L18.909,16.78800439453125C23.199,11.05090439453125,20.611,2.79698439453125,13.8133,0.53647839453125C7.01557,-1.72401560546875,1.1066e-11,3.33631439453125,1.1066e-11,10.50000439453125C-0.0000057541,14.47440439453125,2.244,18.10820439453125,5.79755,19.88810439453125C9.3511,21.66810439453125,13.6051,21.28910439453125,16.788,18.90900439453125L21.438,23.55900439453125C22.0232,24.14590439453125,22.9734,24.14700439453125,23.5601,23.56160439453125C24.1468,22.97620439453125,24.1476,22.02600439453125,23.562,21.43950439453125ZM10.5,17.99850439453125C6.31681,18.05760439453125,2.89397,14.68290439453125,2.89397,10.49920439453125C2.89397,6.31564439453125,6.31681,2.94085439453125,10.5,3.00000439453125C14.6421,3.00000439453125,18,6.35786439453125,18,10.50000439453125C18,14.64210439453125,14.6421,18.00000439453125,10.5,18.00000439453125L10.5,17.99850439453125Z" fill="#888888" fill-opacity="1"/></g></g></svg>