<svg xmlns="http://www.w3.org/2000/svg" xmlns:xlink="http://www.w3.org/1999/xlink" fill="none" version="1.1" width="24" height="24" viewBox="0 0 24 24"><defs><clipPath id="master_svg0_1_23"><rect x="0" y="0" width="24" height="24" rx="0"/></clipPath></defs><g clip-path="url(#master_svg0_1_23)"><g><path d="M10.1078,0L13.9784,0.00494126C15.1803,0.00705891,16.1544,0.954353,16.1559,2.12471L16.1573,2.73882C16.9074,3.0417,17.6179,3.43006,18.2739,3.89577L18.7918,3.60494C19.8337,3.02239,21.1635,3.36959,21.7658,4.38141L23.7061,7.64047C24.2838,8.6113,23.9854,9.85196,23.025,10.4725L22.9068,10.5431L22.3867,10.8353C22.4767,11.6441,22.4638,12.4606,22.3483,13.2664L22.716,13.4739C23.7156,14.0359,24.0921,15.2585,23.5748,16.2628L23.5146,16.3729L21.6969,19.4365C21.1194,20.4092,19.863,20.7756,18.831,20.2722L18.7178,20.2129L18.2152,19.9306C17.5835,20.3725,16.9018,20.7425,16.1834,21.0332L16.1842,21.8746C16.1856,22.9966,15.2894,23.926,14.1387,23.9958L14.0008,24L10.1296,23.9951C8.92754,23.9931,7.95368,23.0451,7.95209,21.8753L7.95063,20.8609C7.35048,20.5866,6.77891,20.2566,6.24387,19.8755L5.31686,20.3951C4.27483,20.9781,2.9445,20.6308,2.34217,19.6186L0.401839,16.3595C-0.175706,15.3885,0.123009,14.1478,1.08368,13.5275L1.20118,13.4569L2.14487,12.9275C2.07234,12.2569,2.06871,11.5765,2.13835,10.8974L1.09093,10.3087C0.0910884,9.74695,-0.285737,8.52428,0.23138,7.51977L0.29231,7.40965L2.11006,4.34612C2.68756,3.37339,3.9439,3.00701,4.97594,3.51036L5.0891,3.56965L6.00305,4.08283C6.5979,3.63123,7.24261,3.24555,7.92525,2.93295L7.9238,2.12542C7.92233,1.00336,8.81852,0.0740182,9.96931,0.0042406L10.1078,0ZM14.4455,8.21435C12.3606,7.0407,9.69275,7.7364,8.4903,9.76729C7.28713,11.7988,8.00223,14.3948,10.0883,15.5682C12.1731,16.7419,14.841,16.0462,16.0434,14.0153C17.2466,11.9838,16.5315,9.3878,14.4455,8.21435ZM10.3799,10.8275C10.9555,9.85504,12.2109,9.48868,13.2414,9.99247L13.3545,10.0518L13.4634,10.1174C14.4279,10.7371,14.7304,11.9802,14.1539,12.9551C13.5537,13.9696,12.2213,14.3174,11.1799,13.7315C10.1357,13.144,9.7777,11.8446,10.3799,10.8275Z" fill="#FFFFFF" fill-opacity="1"/></g></g></svg>